<svg xmlns="http://www.w3.org/2000/svg" version="1.1" xmlns:xlink="http://www.w3.org/1999/xlink" xmlns:svgjs="http://svgjs.dev/svgjs" width="1500" height="1500" viewBox="0 0 1500 1500"><rect width="1500" height="1500" fill="#636365"></rect><g transform="matrix(0.6666666666666666,0,0,0.6666666666666666,249.39393939393938,622.8325628360624)"><svg viewBox="0 0 396 101" data-background-color="#636365" preserveAspectRatio="xMidYMid meet" height="382" width="1500" xmlns="http://www.w3.org/2000/svg" xmlns:xlink="http://www.w3.org/1999/xlink"><g id="tight-bounds" transform="matrix(1,0,0,1,0.2400000000000091,-0.06579389964258553)"><svg viewBox="0 0 395.52 101.13158779928516" height="101.13158779928516" width="395.52"><g><svg viewBox="0 0 617.935294617029 158.00156124049153" height="101.13158779928516" width="395.52"><g><rect width="10.3102343344998" height="137.19383031012285" x="185.11491804561865" y="10.403865465184339" fill="#ffdc00" opacity="1" stroke-width="0" stroke="transparent" fill-opacity="1" class="rect-qz-0" data-fill-palette-color="primary" rx="1%" id="qz-0" data-palette-color="#ffdc00"></rect></g><g transform="matrix(1,0,0,1,222.4152946170289,21.83668465769457)"><svg viewBox="0 0 395.52 114.32819192510239" height="114.32819192510239" width="395.52"><g id="textblocktransform"><svg viewBox="0 0 395.52 114.32819192510239" height="114.32819192510239" width="395.52" id="textblock"><g><svg viewBox="0 0 395.52 114.32819192510239" height="114.32819192510239" width="395.52"><g transform="matrix(1,0,0,1,0,0)"><svg width="395.52" viewBox="1.05 -37.5 170.89 49.4" height="114.32819192510239" data-palette-color="#ffdc00"><path d="M1.05-33.9L1.05-35 19.05-35 19.05-33.9 13.75-33.9 13.75-1.1 15.55-1.1Q19.8-1.1 22.33-3.7 24.85-6.3 27.45-11.7L27.45-11.7 28.5-11.7 27.55 0 1.05 0 1.05-1.1 4-1.1 4-33.9 1.05-33.9ZM43.45 0.5Q37 0.5 33.77-2.83 30.55-6.15 30.55-12.08 30.55-18 34.17-21.15 37.8-24.3 43.4-24.3L43.4-24.3Q54.75-24.3 54.3-12.9L54.3-12.9 40.2-12.9 40.2-10.95Q40.2-6.05 41.45-3.55 42.7-1.05 45.8-1.05L45.8-1.05Q51.6-1.05 53.4-7.25L53.4-7.25 54.3-7.1Q53.35-3.5 50.87-1.5 48.4 0.5 43.45 0.5L43.45 0.5ZM40.25-16.35L40.25-13.9 45.4-13.9 45.4-16.35Q45.4-20.4 44.92-21.88 44.45-23.35 43.02-23.35 41.6-23.35 40.92-21.78 40.25-20.2 40.25-16.35L40.25-16.35ZM71.84-0.55L71.84-0.55Q74.34-0.55 76.27-1.9 78.19-3.25 78.19-5.98 78.19-8.7 76.12-10.15 74.05-11.6 70.22-12.68 66.39-13.75 64.67-14.55 62.95-15.35 61.39-16.65L61.39-16.65Q58.3-19.25 58.3-24.7L58.3-24.7Q58.3-29.15 61.47-32.35 64.64-35.55 70.14-35.55L70.14-35.55Q72.8-35.55 75.67-34.77 78.55-34 79.25-34 79.94-34 80.5-35L80.5-35 81.05-35 81.39-24.9 80.59-24.9Q78.19-29.25 75.57-31.88 72.94-34.5 69.87-34.5 66.8-34.5 65.09-33.08 63.39-31.65 63.39-29.28 63.39-26.9 65.42-25.63 67.44-24.35 70.39-23.55 73.34-22.75 74.27-22.45 75.19-22.15 76.57-21.63 77.94-21.1 78.82-20.53 79.69-19.95 80.67-19.07 81.64-18.2 82.19-17.15L82.19-17.15Q83.55-14.75 83.55-11.45L83.55-11.45Q83.55-6.05 80.17-2.78 76.8 0.5 71.3 0.5L71.3 0.5Q68.44 0.5 64.77-0.25 61.09-1 60.7-1L60.7-1Q59.99-1 59.34 0.5L59.34 0.5 58.64 0.5 58.14-11.4 58.99-11.4Q61.2-7.05 64.62-3.8 68.05-0.55 71.84-0.55ZM86.09-36.6L86.09-37.5 98.14-37.5 98.14-19.2Q98.94-21.5 100.59-22.9 102.24-24.3 105.59-24.3L105.59-24.3Q113.34-24.3 113.34-15.95L113.34-15.95 113.34-0.9 116.14-0.9 116.14 0 101.99 0 101.99-0.9 104.04-0.9 104.04-17.15Q104.04-20.15 103.64-21.03 103.24-21.9 102.19-21.9L102.19-21.9Q100.59-21.9 99.37-19.8 98.14-17.7 98.14-14.7L98.14-14.7 98.14-0.9 100.29-0.9 100.29 0 86.09 0 86.09-0.9 88.84-0.9 88.84-36.6 86.09-36.6ZM133.04-9.85L133.04-9.85 133.04-14.1Q133.04-18.95 132.51-21.18 131.99-23.4 130.09-23.4L130.09-23.4Q128.99-23.4 128.31-22.78 127.64-22.15 127.34-20.7L127.34-20.7Q126.89-18.45 126.89-13.85L126.89-13.85 126.89-9.95Q126.89-4.5 127.22-3.4 127.54-2.3 127.89-1.6L127.89-1.6Q128.44-0.4 130.04-0.4L130.04-0.4Q131.99-0.4 132.59-2.65L132.59-2.65Q133.04-4.25 133.04-9.85ZM129.94 0.5Q123.69 0.5 120.49-2.7 117.29-5.9 117.29-11.88 117.29-17.85 120.72-21.08 124.14-24.3 130.34-24.3 136.54-24.3 139.59-21.33 142.64-18.35 142.64-12.25L142.64-12.25Q142.64 0.5 129.94 0.5L129.94 0.5ZM162.29-13.45Q162.29-18.6 161.79-20.38 161.29-22.15 159.84-22.15 158.39-22.15 157.24-20.28 156.09-18.4 156.09-15.25L156.09-15.25 156.09-6.1Q156.09-3.95 156.94-2.45 157.79-0.95 159.44-0.95 161.09-0.95 161.69-3.15 162.29-5.35 162.29-10.85L162.29-10.85 162.29-13.45ZM144.14-23.8L155.99-23.8 155.99-19.85Q157.94-24.3 162.89-24.3L162.89-24.3Q167.19-24.3 169.56-21.2 171.94-18.1 171.94-11.8 171.94-5.5 169.36-2.5 166.79 0.5 161.64 0.5L161.64 0.5Q159.24 0.5 158.04-0.1 156.84-0.7 156.09-1.95L156.09-1.95 156.09 11 162.54 11 162.54 11.9 144.04 11.9 144.04 11 146.79 11 146.79-22.9 144.14-22.9 144.14-23.8Z" opacity="1" transform="matrix(1,0,0,1,0,0)" fill="#ffdc00" class="wordmark-text-0" data-fill-palette-color="primary" id="text-0"></path></svg></g></svg></g></svg></g></svg></g><g><svg viewBox="0 0 158.1247758087082 158.00156124049153" height="158.00156124049153" width="158.1247758087082"><g><svg xmlns="http://www.w3.org/2000/svg" xmlns:xlink="http://www.w3.org/1999/xlink" version="1.1" x="0" y="0" viewBox="5.083 5.119 89.833 89.763" enable-background="new 0 0 100 100" xml:space="preserve" height="158.00156124049153" width="158.1247758087082" class="icon-icon-0" data-fill-palette-color="accent" id="icon-0"><g fill="#b10dc9" data-fill-palette-color="accent"><path d="M34.283 50.002c0.052-0.853 0.079-1.712 0.079-2.578 0-12.396-5.402-23.526-13.974-31.18C11.011 24.477 5.083 36.544 5.083 50.002H34.283z" fill="#b10dc9" data-fill-palette-color="accent"></path><path d="M5.204 53.124C5.945 63.896 10.48 73.621 17.49 80.977c8.797-6.545 14.919-16.471 16.472-27.853H5.204z" fill="#b10dc9" data-fill-palette-color="accent"></path></g><g fill="#b10dc9" data-fill-palette-color="accent"><path d="M37.482 47.426c0 0.865-0.028 1.723-0.077 2.576h11.034V5.119c-9.608 0.329-18.449 3.676-25.607 9.122C31.833 22.455 37.482 34.28 37.482 47.426z" fill="#b10dc9" data-fill-palette-color="accent"></path><path d="M37.116 53.124c-1.552 12.241-8.026 22.944-17.382 30.063 7.626 6.959 17.66 11.315 28.706 11.694V53.124H37.116z" fill="#b10dc9" data-fill-palette-color="accent"></path></g><g fill="#b10dc9" data-fill-palette-color="accent"><path d="M62.595 50.002c-0.048-0.853-0.076-1.711-0.076-2.576 0-13.146 5.648-24.971 14.649-33.185C70.01 8.794 61.169 5.448 51.561 5.119v44.884H62.595z" fill="#b10dc9" data-fill-palette-color="accent"></path><path d="M62.885 53.124H51.561v41.758c11.045-0.379 21.08-4.735 28.706-11.694C70.911 76.068 64.437 65.365 62.885 53.124z" fill="#b10dc9" data-fill-palette-color="accent"></path></g><g fill="#b10dc9" data-fill-palette-color="accent"><path d="M94.916 50.002c0-13.458-5.927-25.525-15.304-33.757-8.571 7.654-13.974 18.784-13.974 31.179 0 0.865 0.027 1.725 0.079 2.578H94.916z" fill="#b10dc9" data-fill-palette-color="accent"></path><path d="M66.039 53.124c1.554 11.381 7.676 21.308 16.472 27.853 7.009-7.355 11.544-17.08 12.285-27.853H66.039z" fill="#b10dc9" data-fill-palette-color="accent"></path></g></svg></g></svg></g></svg></g><defs></defs></svg><rect width="395.52" height="101.13158779928516" fill="none" stroke="none" visibility="hidden"></rect></g></svg></g></svg>